<?xml version="1.0" encoding="UTF-8"?>
<svg version="1.1" xmlns="http://www.w3.org/2000/svg" width="32" height="32">
<path d="M0 0 C10.56 0 21.12 0 32 0 C32 10.56 32 21.12 32 32 C21.44 32 10.88 32 0 32 C0 21.44 0 10.88 0 0 Z " fill="#46335F" transform="translate(0,0)"/>
<path d="M0 0 C3.56458044 0.06243692 4.63871191 0.30312645 7.75 2.3125 C10.38154117 6.34204742 11.03612216 9.59267251 10.75 14.375 C9.95247701 17.80499726 8.79006003 20.52066498 6 22.8125 C2.69155746 23.63961064 0.15118241 23.79268907 -3.25 23.375 C-6.37414473 20.79418479 -8.98160518 18.57495751 -9.48828125 14.421875 C-9.67379665 8.68066163 -8.91568847 5.81825875 -5.25 1.375 C-3.69049449 -0.18450551 -2.16122869 0.09303302 0 0 Z " fill="#F7F6F8" transform="translate(15.25,4.625)"/>
<path d="M0 0 C2.5625 0.25 2.5625 0.25 5 1 C6.3899408 3.7798816 6.18488204 5.9186326 6 9 C5 11.375 5 11.375 4 13 C2.35 12.67 0.7 12.34 -1 12 C-2.17353189 8.47940432 -2.20146402 5.693507 -2 2 C-1.34 1.34 -0.68 0.68 0 0 Z " fill="#644E81" transform="translate(14,10)"/>
</svg>
